<svg xmlns="http://www.w3.org/2000/svg" viewBox="450 145 480 485" width="480" height="485">
  <path d="M 502 612 L 502 613 L 509 613 L 509 612 Z M 808 551 L 808 552 L 801 557 L 799 561 L 797 562 L 797 564 L 795 566 L 793 571 L 793 577 L 792 578 L 792 582 L 793 583 L 793 592 L 795 595 L 796 600 L 804 609 L 814 614 L 828 615 L 829 614 L 835 614 L 838 612 L 842 611 L 850 603 L 853 596 L 853 594 L 852 593 L 850 593 L 849 592 L 840 592 L 835 599 L 827 602 L 822 602 L 821 601 L 818 601 L 813 598 L 812 594 L 811 594 L 808 590 L 808 587 L 809 586 L 847 586 L 848 587 L 853 586 L 854 585 L 854 572 L 853 571 L 853 568 L 850 564 L 850 562 L 842 554 L 832 549 L 816 549 L 812 551 Z M 808 572 L 810 568 L 813 565 L 819 562 L 820 563 L 822 562 L 829 562 L 835 567 L 839 574 L 838 575 L 810 575 Z M 677 551 L 675 553 L 673 553 L 673 554 L 671 555 L 671 556 L 667 560 L 667 564 L 665 566 L 665 571 L 668 578 L 673 583 L 677 584 L 679 586 L 684 586 L 687 588 L 693 588 L 700 591 L 702 593 L 702 598 L 700 601 L 697 601 L 694 603 L 689 603 L 681 599 L 678 593 L 673 591 L 672 592 L 669 592 L 664 594 L 665 601 L 667 603 L 668 606 L 669 606 L 672 610 L 679 614 L 683 614 L 684 615 L 686 614 L 704 614 L 706 612 L 708 612 L 713 607 L 718 598 L 717 597 L 717 592 L 718 591 L 716 588 L 716 585 L 709 579 L 705 577 L 700 577 L 696 575 L 690 575 L 687 573 L 683 572 L 681 569 L 681 565 L 686 562 L 695 562 L 697 563 L 704 571 L 706 570 L 715 570 L 716 569 L 716 565 L 710 555 L 704 551 L 698 550 L 697 549 L 685 549 L 681 551 Z M 555 551 L 553 554 L 553 559 L 554 560 L 553 562 L 553 595 L 555 597 L 555 600 L 561 610 L 563 610 L 564 612 L 566 612 L 568 614 L 573 614 L 574 615 L 581 615 L 582 614 L 585 615 L 586 614 L 588 614 L 594 609 L 596 610 L 598 614 L 609 614 L 610 613 L 610 602 L 611 601 L 611 598 L 610 597 L 610 552 L 609 551 L 597 551 L 595 553 L 595 591 L 593 593 L 593 595 L 586 601 L 578 601 L 573 599 L 570 596 L 570 594 L 569 593 L 569 586 L 570 585 L 568 582 L 569 581 L 568 579 L 568 572 L 569 571 L 568 569 L 568 551 L 566 551 L 565 549 Z M 631 533 L 629 534 L 629 545 L 628 546 L 628 549 L 627 550 L 621 550 L 620 549 L 620 550 L 617 552 L 617 561 L 621 564 L 627 563 L 629 565 L 628 567 L 628 577 L 629 578 L 628 580 L 628 601 L 631 607 L 636 612 L 638 612 L 641 614 L 647 614 L 648 615 L 650 614 L 652 615 L 657 614 L 660 611 L 660 605 L 659 604 L 659 602 L 657 601 L 646 601 L 643 597 L 643 586 L 642 585 L 643 583 L 642 581 L 643 579 L 643 575 L 642 574 L 643 573 L 643 570 L 642 569 L 643 566 L 642 565 L 645 563 L 646 564 L 649 564 L 650 563 L 651 564 L 653 564 L 654 563 L 657 564 L 658 563 L 657 562 L 659 561 L 660 559 L 659 557 L 659 555 L 660 554 L 659 552 L 654 551 L 653 550 L 652 551 L 645 551 L 642 548 L 643 547 L 642 545 L 642 540 L 643 539 L 642 534 L 641 533 Z M 629 592 L 630 593 L 630 595 L 629 596 L 628 595 L 628 593 Z M 469 528 L 467 530 L 467 547 L 468 548 L 468 558 L 467 559 L 467 587 L 468 588 L 468 591 L 467 592 L 467 610 L 468 612 L 471 614 L 481 614 L 483 611 L 482 603 L 485 601 L 483 599 L 483 582 L 482 581 L 482 569 L 483 568 L 483 564 L 482 563 L 483 562 L 483 557 L 484 556 L 496 571 L 500 578 L 503 581 L 505 586 L 506 586 L 510 591 L 513 597 L 515 598 L 516 603 L 517 603 L 522 609 L 521 610 L 522 610 L 526 614 L 539 614 L 540 613 L 540 598 L 541 597 L 540 595 L 540 586 L 541 585 L 540 584 L 540 577 L 541 576 L 541 572 L 540 571 L 540 543 L 541 542 L 541 540 L 540 539 L 540 529 L 537 527 L 535 528 L 530 528 L 529 527 L 526 529 L 524 534 L 525 536 L 525 584 L 523 585 L 518 578 L 517 575 L 514 572 L 514 570 L 512 569 L 510 565 L 504 558 L 500 550 L 496 546 L 496 545 L 494 544 L 490 538 L 490 536 L 488 533 L 481 527 L 480 528 L 478 528 L 477 527 L 475 528 L 473 527 Z M 894 525 L 893 526 L 893 543 L 892 544 L 892 549 L 893 550 L 893 569 L 892 570 L 893 572 L 893 603 L 892 604 L 891 609 L 895 614 L 903 614 L 904 615 L 907 615 L 906 614 L 909 610 L 909 605 L 907 602 L 907 595 L 908 594 L 908 591 L 907 590 L 908 588 L 908 585 L 907 584 L 908 583 L 907 581 L 908 580 L 908 573 L 907 572 L 907 565 L 908 564 L 908 541 L 907 540 L 908 539 L 908 535 L 907 533 L 908 532 L 908 530 L 907 528 L 905 527 L 906 526 L 905 525 Z M 728 525 L 727 526 L 727 612 L 731 614 L 740 614 L 742 611 L 742 586 L 741 585 L 741 583 L 742 582 L 742 573 L 744 569 L 750 563 L 752 563 L 753 562 L 757 563 L 759 562 L 760 563 L 762 563 L 767 568 L 767 571 L 769 576 L 769 605 L 768 606 L 769 608 L 769 612 L 771 614 L 774 614 L 775 615 L 776 614 L 781 614 L 783 613 L 785 609 L 784 607 L 784 574 L 783 573 L 784 571 L 783 570 L 783 564 L 778 557 L 779 552 L 776 554 L 769 550 L 766 550 L 765 549 L 753 549 L 751 551 L 747 551 L 743 555 L 741 551 L 741 548 L 742 547 L 742 538 L 741 537 L 742 535 L 742 527 L 739 525 Z M 875 524 L 864 526 L 864 531 L 863 532 L 864 534 L 864 555 L 863 556 L 863 564 L 864 565 L 864 571 L 863 572 L 864 574 L 864 578 L 863 579 L 863 597 L 864 598 L 864 605 L 863 606 L 864 607 L 864 611 L 865 613 L 867 613 L 868 614 L 874 614 L 878 612 L 878 600 L 879 599 L 878 597 L 879 596 L 879 584 L 878 583 L 878 555 L 880 550 L 878 547 L 878 526 Z M 1053 462 L 1052 462 L 1050 465 L 1053 465 Z M 732 253 L 723 254 L 717 258 L 713 259 L 713 260 L 708 264 L 707 263 L 706 265 L 707 266 L 705 267 L 703 270 L 703 272 L 701 273 L 701 274 L 696 279 L 681 283 L 665 291 L 661 295 L 660 295 L 655 303 L 653 304 L 651 308 L 648 311 L 647 309 L 650 303 L 648 298 L 642 297 L 639 300 L 639 303 L 637 305 L 637 307 L 635 310 L 635 317 L 633 320 L 634 322 L 625 331 L 623 332 L 624 333 L 621 339 L 621 344 L 619 348 L 619 357 L 618 358 L 618 361 L 616 364 L 617 366 L 617 370 L 616 371 L 615 376 L 611 381 L 611 383 L 607 389 L 607 396 L 609 398 L 612 398 L 616 395 L 617 393 L 620 392 L 620 389 L 622 386 L 622 384 L 624 381 L 624 379 L 626 375 L 626 371 L 629 368 L 628 367 L 628 364 L 629 363 L 629 350 L 630 349 L 630 345 L 632 343 L 632 341 L 634 337 L 636 336 L 641 330 L 646 328 L 652 324 L 652 323 L 654 322 L 661 314 L 665 306 L 672 299 L 675 298 L 677 296 L 680 296 L 682 294 L 685 294 L 687 292 L 688 293 L 689 292 L 699 290 L 703 286 L 704 286 L 704 285 L 706 284 L 709 280 L 710 280 L 711 277 L 719 269 L 734 261 L 734 256 Z M 817 181 L 811 181 L 808 179 L 801 179 L 800 177 L 798 178 L 797 177 L 793 177 L 791 175 L 788 175 L 787 173 L 785 172 L 784 173 L 783 172 L 781 172 L 776 169 L 774 169 L 766 165 L 763 165 L 761 163 L 759 163 L 756 161 L 753 161 L 750 159 L 747 159 L 745 157 L 742 157 L 740 155 L 730 155 L 727 153 L 718 152 L 717 151 L 716 152 L 705 152 L 704 153 L 686 153 L 682 155 L 676 155 L 674 157 L 669 157 L 666 159 L 662 159 L 659 161 L 652 163 L 647 166 L 645 166 L 641 169 L 639 169 L 631 175 L 629 175 L 626 178 L 620 181 L 605 191 L 602 195 L 599 196 L 586 209 L 585 209 L 585 210 L 581 213 L 581 214 L 578 216 L 570 225 L 569 225 L 566 229 L 565 232 L 555 243 L 553 243 L 552 242 L 553 246 L 547 256 L 544 259 L 545 260 L 537 272 L 537 274 L 535 276 L 532 282 L 531 288 L 529 290 L 527 297 L 525 299 L 525 302 L 523 305 L 523 308 L 521 311 L 521 317 L 519 319 L 519 324 L 517 328 L 517 333 L 515 336 L 516 338 L 516 343 L 515 344 L 515 354 L 516 355 L 516 360 L 517 361 L 517 369 L 519 372 L 518 373 L 518 375 L 519 376 L 520 382 L 523 387 L 523 390 L 527 396 L 529 403 L 531 405 L 531 407 L 535 412 L 537 417 L 539 418 L 541 423 L 544 426 L 545 429 L 555 443 L 555 445 L 559 451 L 560 458 L 563 465 L 567 468 L 569 468 L 572 470 L 577 470 L 581 472 L 584 472 L 586 474 L 588 474 L 590 476 L 596 479 L 598 479 L 601 482 L 603 482 L 605 484 L 609 485 L 616 490 L 619 490 L 620 492 L 622 492 L 624 494 L 626 494 L 637 499 L 638 498 L 640 500 L 643 500 L 647 502 L 652 502 L 656 504 L 669 504 L 670 505 L 678 505 L 679 504 L 680 505 L 682 504 L 685 505 L 687 504 L 689 505 L 690 504 L 694 504 L 697 502 L 704 502 L 706 500 L 711 500 L 712 499 L 717 498 L 722 495 L 725 495 L 729 492 L 733 492 L 733 491 L 737 488 L 739 488 L 741 486 L 743 486 L 747 482 L 749 482 L 751 480 L 753 480 L 754 478 L 756 478 L 764 471 L 772 466 L 775 462 L 779 460 L 779 459 L 787 452 L 788 452 L 788 451 L 790 450 L 790 449 L 792 448 L 792 447 L 802 437 L 805 432 L 808 430 L 810 426 L 813 424 L 816 420 L 818 415 L 824 408 L 825 405 L 830 399 L 830 397 L 832 396 L 836 387 L 838 385 L 838 383 L 840 379 L 842 377 L 842 375 L 844 371 L 846 369 L 846 365 L 848 363 L 848 360 L 850 357 L 850 353 L 852 351 L 852 348 L 854 345 L 854 341 L 856 338 L 857 327 L 858 326 L 858 314 L 859 313 L 859 309 L 860 308 L 860 294 L 858 290 L 858 281 L 857 280 L 857 274 L 856 273 L 856 269 L 855 268 L 854 262 L 848 250 L 848 247 L 846 245 L 844 238 L 842 236 L 839 230 L 840 229 L 837 227 L 836 224 L 834 222 L 834 220 L 828 209 L 828 207 L 826 205 L 826 201 L 824 198 L 824 193 L 822 190 L 822 187 Z M 704 469 L 701 473 L 698 473 L 697 474 L 693 474 L 692 473 L 689 475 L 679 476 L 676 479 L 674 479 L 672 481 L 668 481 L 666 483 L 647 483 L 646 482 L 643 482 L 642 483 L 638 481 L 636 482 L 626 482 L 625 481 L 622 481 L 617 477 L 618 476 L 620 477 L 623 476 L 627 478 L 638 478 L 639 479 L 648 479 L 649 478 L 653 478 L 660 474 L 662 474 L 663 473 L 668 473 L 669 472 L 672 472 L 674 470 L 680 469 L 687 464 L 694 456 L 696 457 L 696 459 L 695 460 L 695 466 L 697 468 L 703 468 Z M 745 430 L 735 445 L 728 452 L 727 452 L 726 454 L 720 457 L 717 457 L 714 459 L 710 459 L 709 458 L 711 453 L 717 445 L 731 434 L 733 434 L 735 432 L 737 432 L 739 430 L 741 430 L 742 429 L 744 429 Z M 811 387 L 812 395 L 813 396 L 812 398 L 813 399 L 813 404 L 811 408 L 805 415 L 803 419 L 800 421 L 795 429 L 793 430 L 793 431 L 791 432 L 791 433 L 789 434 L 789 435 L 785 438 L 782 442 L 781 442 L 770 453 L 769 453 L 758 463 L 755 464 L 750 468 L 749 467 L 746 471 L 743 473 L 741 473 L 734 479 L 732 479 L 730 481 L 728 481 L 726 483 L 724 483 L 721 485 L 718 485 L 715 487 L 711 487 L 709 489 L 707 489 L 703 491 L 699 491 L 696 493 L 688 493 L 683 495 L 681 494 L 680 495 L 670 495 L 667 493 L 668 492 L 672 492 L 674 490 L 677 490 L 685 486 L 690 486 L 695 484 L 700 484 L 703 482 L 705 482 L 709 480 L 715 474 L 716 471 L 718 469 L 723 466 L 726 466 L 737 458 L 737 457 L 746 448 L 749 444 L 750 440 L 753 437 L 757 436 L 760 434 L 765 434 L 768 432 L 776 430 L 781 426 L 784 425 L 788 421 L 789 421 L 789 420 L 793 416 L 794 416 L 794 414 L 798 410 L 798 408 L 802 400 L 802 397 L 804 395 L 804 390 L 807 388 L 808 386 L 810 386 Z M 743 360 L 743 363 L 741 366 L 741 368 L 737 373 L 737 375 L 733 381 L 733 383 L 726 391 L 725 390 L 725 391 L 722 393 L 721 395 L 719 395 L 716 397 L 713 397 L 710 399 L 703 399 L 702 400 L 701 399 L 697 401 L 692 401 L 691 403 L 688 403 L 686 405 L 681 407 L 678 410 L 675 411 L 674 413 L 671 414 L 668 420 L 669 424 L 671 426 L 676 426 L 679 422 L 682 421 L 687 416 L 695 411 L 698 411 L 699 410 L 706 410 L 707 409 L 711 409 L 712 410 L 706 416 L 700 419 L 699 421 L 697 421 L 694 424 L 688 427 L 687 429 L 685 429 L 675 434 L 668 434 L 667 433 L 662 433 L 661 432 L 656 433 L 656 434 L 646 443 L 635 443 L 629 439 L 624 439 L 620 443 L 621 444 L 621 446 L 628 452 L 631 452 L 635 454 L 647 454 L 649 452 L 651 452 L 653 450 L 655 450 L 661 444 L 679 444 L 680 443 L 683 445 L 682 445 L 681 443 L 682 442 L 684 442 L 685 440 L 687 440 L 688 441 L 687 447 L 685 449 L 685 451 L 679 457 L 673 460 L 670 460 L 666 462 L 665 461 L 662 463 L 658 463 L 652 467 L 650 467 L 648 469 L 634 469 L 633 468 L 623 466 L 622 465 L 599 465 L 598 466 L 595 466 L 594 465 L 591 465 L 589 463 L 590 461 L 599 456 L 607 448 L 608 448 L 616 440 L 617 440 L 618 438 L 629 430 L 633 428 L 635 428 L 638 426 L 640 426 L 643 424 L 645 424 L 647 422 L 650 422 L 653 420 L 656 420 L 659 417 L 663 416 L 667 412 L 669 412 L 669 411 L 694 385 L 698 382 L 702 382 L 703 381 L 705 382 L 711 379 L 717 371 L 726 363 L 739 358 Z M 813 325 L 814 326 L 814 328 L 813 329 L 813 346 L 812 347 L 814 351 L 814 355 L 812 360 L 812 364 L 807 373 L 801 378 L 796 373 L 791 373 L 789 374 L 789 381 L 792 385 L 792 389 L 793 390 L 793 396 L 791 399 L 791 401 L 787 405 L 786 408 L 783 412 L 774 420 L 768 421 L 766 423 L 761 423 L 758 425 L 754 425 L 753 424 L 755 423 L 759 418 L 760 418 L 764 412 L 764 408 L 766 406 L 766 399 L 767 397 L 780 386 L 782 383 L 782 381 L 784 379 L 784 377 L 785 376 L 784 364 L 786 361 L 786 359 L 790 353 L 790 349 L 792 347 L 793 342 L 799 336 L 803 333 L 806 332 Z M 828 319 L 829 320 L 829 325 L 830 326 L 830 332 L 829 333 L 829 336 L 825 342 L 823 340 L 824 339 L 824 325 L 826 320 Z M 554 304 L 555 306 L 553 309 L 552 308 L 552 306 Z M 582 267 L 583 268 L 583 271 L 586 275 L 591 274 L 593 277 L 595 277 L 597 280 L 595 282 L 595 284 L 594 285 L 595 286 L 592 292 L 582 300 L 573 305 L 567 312 L 567 315 L 565 318 L 565 329 L 564 330 L 565 332 L 564 333 L 563 338 L 561 339 L 556 351 L 557 361 L 559 363 L 559 365 L 553 372 L 549 381 L 549 401 L 550 402 L 551 412 L 552 413 L 552 415 L 551 416 L 548 411 L 549 410 L 548 409 L 548 405 L 546 400 L 546 394 L 545 393 L 544 383 L 545 382 L 546 375 L 548 373 L 550 366 L 552 364 L 552 362 L 553 361 L 553 356 L 549 352 L 546 353 L 543 356 L 541 354 L 542 353 L 542 347 L 548 338 L 549 335 L 556 329 L 562 317 L 562 314 L 564 311 L 564 302 L 566 297 L 566 288 L 567 287 L 568 280 L 573 273 L 574 273 L 580 267 Z M 842 265 L 844 268 L 844 271 L 847 277 L 847 282 L 848 283 L 848 287 L 849 288 L 849 291 L 848 292 L 848 296 L 849 297 L 848 298 L 848 303 L 849 304 L 849 316 L 847 321 L 847 325 L 845 328 L 846 330 L 843 336 L 844 339 L 843 340 L 843 346 L 841 348 L 841 352 L 839 354 L 839 356 L 837 359 L 837 362 L 833 368 L 833 371 L 829 376 L 829 378 L 825 386 L 823 388 L 821 386 L 820 379 L 818 376 L 818 374 L 822 369 L 822 365 L 824 362 L 824 356 L 834 348 L 840 336 L 840 321 L 838 316 L 832 312 L 835 309 L 836 310 L 835 309 L 836 307 L 840 303 L 844 295 L 844 290 L 845 289 L 844 287 L 845 285 L 844 284 L 844 278 L 842 276 L 842 274 L 840 271 L 840 267 Z M 558 259 L 561 265 L 561 273 L 559 275 L 559 277 L 557 280 L 557 283 L 556 284 L 555 289 L 554 290 L 552 290 L 552 291 L 545 297 L 543 301 L 543 303 L 541 305 L 541 309 L 540 311 L 541 312 L 541 316 L 545 322 L 545 325 L 537 332 L 535 340 L 533 342 L 532 347 L 531 348 L 531 361 L 532 362 L 532 366 L 536 372 L 536 375 L 535 376 L 535 386 L 534 387 L 532 385 L 532 382 L 530 378 L 530 373 L 528 369 L 528 364 L 526 361 L 526 339 L 528 335 L 528 327 L 530 324 L 531 315 L 532 314 L 533 309 L 535 306 L 534 305 L 536 303 L 536 300 L 538 297 L 538 294 L 540 293 L 540 290 L 542 288 L 542 286 L 548 277 L 548 275 L 552 269 L 554 264 Z M 827 253 L 829 255 L 829 261 L 830 263 L 829 264 L 829 270 L 823 281 L 823 290 L 828 291 L 830 290 L 833 286 L 835 287 L 835 289 L 834 291 L 832 292 L 833 293 L 832 294 L 832 296 L 825 303 L 823 303 L 823 304 L 820 306 L 820 308 L 816 311 L 814 308 L 815 307 L 815 301 L 817 296 L 817 292 L 819 289 L 818 283 L 817 282 L 822 272 L 822 270 L 824 266 L 824 262 L 825 261 L 826 254 Z M 776 259 L 777 260 L 776 262 L 776 268 L 775 269 L 775 272 L 773 274 L 773 279 L 772 280 L 771 285 L 773 287 L 773 290 L 777 295 L 781 304 L 783 305 L 783 323 L 782 324 L 783 325 L 783 328 L 781 331 L 783 335 L 783 341 L 782 342 L 781 341 L 782 342 L 780 344 L 773 334 L 764 328 L 760 327 L 756 330 L 756 335 L 762 339 L 769 347 L 769 349 L 771 351 L 771 353 L 773 356 L 773 378 L 771 381 L 767 383 L 764 386 L 761 387 L 758 391 L 754 393 L 748 392 L 745 394 L 745 401 L 748 403 L 751 403 L 754 405 L 753 410 L 749 413 L 748 415 L 746 415 L 740 419 L 736 420 L 734 422 L 730 423 L 728 425 L 726 425 L 722 428 L 721 427 L 720 429 L 718 429 L 713 435 L 709 437 L 708 440 L 705 443 L 703 447 L 701 448 L 701 450 L 698 453 L 697 452 L 697 450 L 698 449 L 698 442 L 699 441 L 699 434 L 705 430 L 706 428 L 717 420 L 722 415 L 723 415 L 734 403 L 740 394 L 739 393 L 744 386 L 746 379 L 748 377 L 752 369 L 752 367 L 754 364 L 754 360 L 755 359 L 757 359 L 756 356 L 754 354 L 754 352 L 751 349 L 747 347 L 735 348 L 734 349 L 731 349 L 728 351 L 726 351 L 721 355 L 716 357 L 703 371 L 701 372 L 699 371 L 689 375 L 679 385 L 679 386 L 677 387 L 671 393 L 671 394 L 669 395 L 669 396 L 659 405 L 657 404 L 656 406 L 651 410 L 644 413 L 641 413 L 639 415 L 637 415 L 634 417 L 629 418 L 623 421 L 622 423 L 620 423 L 609 431 L 609 432 L 607 433 L 594 446 L 593 445 L 593 443 L 596 441 L 603 433 L 604 433 L 610 424 L 612 423 L 616 418 L 617 418 L 617 417 L 624 410 L 626 406 L 634 399 L 638 393 L 640 392 L 640 391 L 655 376 L 657 377 L 657 376 L 655 375 L 661 367 L 663 366 L 666 362 L 668 361 L 669 362 L 669 360 L 671 357 L 684 343 L 684 342 L 687 339 L 689 340 L 688 338 L 691 335 L 695 338 L 695 337 L 692 335 L 692 333 L 696 330 L 705 318 L 713 310 L 713 309 L 717 306 L 717 305 L 738 282 L 738 281 L 740 280 L 745 274 L 746 274 L 753 264 L 756 262 L 756 261 L 764 253 L 765 255 L 763 258 L 763 260 L 761 261 L 761 263 L 759 266 L 759 269 L 757 271 L 756 280 L 755 281 L 755 286 L 754 287 L 754 292 L 751 300 L 749 301 L 749 302 L 747 303 L 744 307 L 735 312 L 731 316 L 731 317 L 729 318 L 723 328 L 714 338 L 706 342 L 693 345 L 691 347 L 689 347 L 678 356 L 677 356 L 676 357 L 676 360 L 671 365 L 671 366 L 667 369 L 666 371 L 661 374 L 660 376 L 661 378 L 660 379 L 662 382 L 668 382 L 669 383 L 669 381 L 675 377 L 676 375 L 678 374 L 681 370 L 682 370 L 684 366 L 689 360 L 690 360 L 694 356 L 696 356 L 700 354 L 704 354 L 722 345 L 728 340 L 736 327 L 740 324 L 741 325 L 740 327 L 740 331 L 739 332 L 739 337 L 740 339 L 745 340 L 749 336 L 750 331 L 752 328 L 752 314 L 757 310 L 762 302 L 762 300 L 764 297 L 765 290 L 766 289 L 765 287 L 766 286 L 765 285 L 768 283 L 768 279 L 767 278 L 768 271 L 770 269 L 770 266 L 772 264 L 773 261 Z M 811 237 L 815 242 L 815 249 L 816 250 L 815 261 L 813 262 L 812 268 L 806 277 L 806 281 L 807 282 L 807 295 L 805 297 L 805 299 L 804 300 L 805 305 L 803 308 L 805 312 L 804 314 L 805 316 L 803 320 L 795 326 L 793 324 L 793 322 L 794 321 L 794 309 L 793 308 L 792 299 L 782 283 L 782 281 L 784 278 L 784 276 L 785 275 L 784 274 L 786 271 L 787 265 L 789 264 L 790 259 L 791 258 L 793 259 L 792 257 L 799 252 L 806 245 L 809 241 L 809 239 Z M 825 236 L 827 238 L 827 242 L 826 243 L 824 241 L 824 237 Z M 628 225 L 629 227 L 625 232 L 625 236 L 621 244 L 619 246 L 615 247 L 614 249 L 611 249 L 611 250 L 608 252 L 607 255 L 605 256 L 605 260 L 603 262 L 604 263 L 603 264 L 603 266 L 604 267 L 603 268 L 603 272 L 600 276 L 599 275 L 600 276 L 598 280 L 596 278 L 596 276 L 594 276 L 591 274 L 594 271 L 594 267 L 590 260 L 590 255 L 592 252 L 592 250 L 598 241 L 611 230 L 613 230 L 615 228 L 618 228 L 621 226 L 627 226 Z M 687 222 L 688 223 L 688 227 L 683 229 L 681 226 Z M 818 214 L 820 216 L 824 226 L 824 229 L 825 230 L 825 235 L 824 236 L 821 232 L 820 228 L 819 228 L 817 225 L 816 219 Z M 810 202 L 811 203 L 811 205 L 807 213 L 807 216 L 804 224 L 804 227 L 803 228 L 801 228 L 801 229 L 803 229 L 804 227 L 807 229 L 807 231 L 804 233 L 801 233 L 798 239 L 795 242 L 792 243 L 790 245 L 789 244 L 786 248 L 784 247 L 784 249 L 780 253 L 777 259 L 774 255 L 774 253 L 772 251 L 768 251 L 767 250 L 776 240 L 776 239 L 781 234 L 782 234 L 782 232 L 783 231 L 784 231 L 785 232 L 784 233 L 785 233 L 784 230 L 786 227 L 788 226 L 791 222 L 793 222 L 792 221 L 794 220 L 797 215 L 800 213 L 801 210 L 809 202 Z M 796 196 L 798 198 L 795 202 L 791 205 L 791 206 L 785 212 L 783 213 L 782 216 L 779 220 L 764 235 L 763 238 L 757 243 L 757 244 L 751 250 L 747 256 L 745 257 L 745 258 L 737 266 L 737 267 L 735 268 L 733 271 L 725 278 L 725 280 L 723 283 L 721 284 L 717 290 L 715 291 L 706 301 L 705 301 L 705 302 L 701 306 L 700 309 L 674 336 L 673 335 L 672 336 L 673 338 L 669 342 L 669 343 L 662 350 L 661 350 L 655 359 L 651 362 L 651 363 L 639 375 L 633 383 L 623 393 L 616 403 L 613 405 L 611 405 L 612 406 L 611 408 L 605 413 L 603 417 L 601 418 L 601 419 L 591 429 L 582 441 L 580 442 L 579 440 L 581 435 L 584 432 L 584 430 L 592 422 L 593 419 L 597 416 L 597 415 L 599 414 L 607 405 L 606 401 L 602 398 L 598 399 L 580 418 L 575 425 L 575 427 L 572 431 L 571 435 L 569 437 L 567 434 L 568 429 L 566 428 L 564 418 L 563 417 L 563 414 L 562 413 L 562 408 L 560 405 L 560 398 L 558 394 L 558 391 L 559 390 L 559 385 L 561 383 L 561 379 L 562 377 L 564 376 L 567 372 L 569 372 L 570 370 L 570 362 L 567 357 L 567 355 L 568 354 L 568 349 L 569 348 L 569 346 L 572 342 L 572 340 L 574 338 L 574 336 L 576 332 L 576 317 L 580 313 L 584 312 L 586 310 L 589 310 L 590 311 L 590 313 L 589 314 L 589 333 L 591 336 L 591 340 L 593 342 L 593 346 L 594 345 L 597 349 L 597 351 L 600 353 L 600 355 L 601 356 L 601 364 L 599 367 L 599 371 L 594 378 L 582 387 L 580 387 L 580 388 L 576 391 L 575 396 L 573 398 L 573 401 L 571 404 L 571 409 L 572 411 L 575 413 L 577 413 L 581 410 L 582 403 L 584 402 L 586 398 L 591 393 L 594 392 L 595 390 L 602 386 L 603 384 L 605 385 L 604 383 L 606 380 L 608 379 L 608 373 L 610 370 L 610 363 L 611 362 L 611 356 L 612 354 L 610 349 L 606 344 L 606 342 L 601 336 L 599 326 L 598 325 L 599 323 L 598 322 L 600 319 L 600 316 L 601 315 L 601 306 L 602 305 L 601 297 L 602 296 L 602 294 L 605 292 L 604 291 L 608 285 L 611 287 L 610 288 L 612 290 L 613 294 L 619 302 L 627 306 L 632 305 L 633 303 L 633 298 L 631 296 L 628 295 L 621 286 L 620 282 L 617 277 L 616 271 L 614 268 L 614 262 L 618 258 L 620 258 L 622 256 L 625 255 L 632 248 L 641 248 L 644 245 L 644 241 L 641 239 L 636 238 L 635 237 L 636 235 L 642 230 L 650 226 L 652 226 L 655 224 L 659 224 L 662 222 L 664 222 L 666 220 L 668 221 L 663 228 L 659 231 L 651 242 L 651 244 L 647 249 L 647 252 L 642 259 L 641 258 L 641 261 L 640 263 L 638 264 L 637 270 L 635 272 L 635 283 L 640 287 L 642 287 L 643 288 L 650 288 L 651 287 L 654 287 L 655 286 L 658 286 L 659 285 L 664 284 L 666 282 L 670 281 L 680 273 L 681 274 L 680 273 L 681 270 L 684 268 L 687 264 L 694 264 L 695 263 L 696 264 L 701 260 L 704 259 L 712 248 L 716 245 L 716 244 L 722 238 L 728 234 L 736 231 L 741 231 L 742 230 L 746 230 L 750 228 L 755 228 L 758 226 L 760 226 L 765 222 L 767 222 L 773 217 L 776 216 L 781 209 L 784 207 L 792 198 Z M 801 192 L 802 194 L 800 196 L 797 197 L 796 196 Z M 678 195 L 669 206 L 663 209 L 661 211 L 651 214 L 644 218 L 642 216 L 649 208 L 649 207 L 661 196 L 663 196 L 665 194 L 669 194 L 673 192 L 674 193 L 676 193 Z M 788 187 L 788 188 L 786 189 L 774 201 L 773 201 L 768 208 L 762 213 L 760 213 L 758 215 L 756 215 L 755 217 L 749 217 L 748 218 L 746 218 L 745 217 L 743 219 L 735 220 L 732 222 L 726 223 L 720 227 L 718 227 L 705 239 L 703 242 L 703 244 L 701 245 L 694 253 L 692 253 L 690 255 L 683 255 L 679 257 L 678 259 L 675 261 L 675 262 L 670 267 L 669 267 L 668 269 L 663 271 L 657 275 L 655 275 L 653 277 L 647 277 L 646 276 L 646 274 L 650 269 L 650 267 L 652 265 L 654 259 L 657 256 L 656 255 L 658 251 L 660 250 L 661 248 L 670 242 L 673 242 L 675 240 L 679 240 L 681 239 L 685 241 L 684 240 L 685 238 L 693 238 L 698 236 L 700 234 L 701 235 L 702 234 L 704 234 L 703 233 L 704 231 L 707 229 L 710 225 L 710 220 L 709 219 L 704 218 L 699 221 L 695 225 L 692 225 L 689 223 L 689 221 L 696 217 L 698 215 L 706 213 L 709 211 L 713 211 L 714 210 L 722 210 L 723 211 L 727 211 L 728 212 L 733 211 L 734 210 L 736 210 L 739 206 L 745 203 L 754 204 L 759 208 L 765 208 L 768 203 L 766 199 L 755 193 L 750 193 L 749 192 L 744 192 L 738 195 L 736 195 L 729 201 L 726 201 L 722 199 L 711 199 L 710 198 L 711 197 L 710 196 L 712 193 L 718 188 L 721 188 L 724 186 L 729 186 L 730 185 L 732 186 L 733 185 L 736 185 L 737 186 L 738 185 L 740 185 L 741 186 L 748 186 L 749 188 L 750 186 L 755 187 L 756 186 L 781 186 L 782 185 L 784 185 L 785 186 L 786 185 Z M 752 174 L 750 176 L 749 175 L 724 175 L 722 177 L 718 177 L 711 181 L 709 181 L 701 190 L 701 193 L 700 194 L 700 202 L 698 204 L 694 205 L 693 207 L 685 210 L 680 214 L 676 216 L 675 215 L 675 214 L 679 210 L 680 210 L 680 209 L 688 200 L 689 197 L 692 194 L 693 190 L 688 184 L 691 182 L 697 182 L 698 181 L 703 180 L 710 175 L 715 174 L 718 172 L 729 172 L 730 171 L 733 172 L 734 171 L 736 171 L 737 172 L 748 172 Z M 707 164 L 703 167 L 700 165 L 699 167 L 700 168 L 696 171 L 691 171 L 688 173 L 684 173 L 678 177 L 674 178 L 672 181 L 665 183 L 663 185 L 660 185 L 659 187 L 657 187 L 655 189 L 653 189 L 637 203 L 637 205 L 630 214 L 629 213 L 628 215 L 622 215 L 619 217 L 615 217 L 612 219 L 610 219 L 602 224 L 600 224 L 595 229 L 593 229 L 593 230 L 591 231 L 591 233 L 585 241 L 585 243 L 580 254 L 578 256 L 575 257 L 571 261 L 569 258 L 569 247 L 570 246 L 570 242 L 572 239 L 582 229 L 584 229 L 585 228 L 585 226 L 587 224 L 588 225 L 589 224 L 587 223 L 589 221 L 592 220 L 591 219 L 600 210 L 601 210 L 603 207 L 623 192 L 627 190 L 631 186 L 633 186 L 638 182 L 640 182 L 646 178 L 652 176 L 654 174 L 657 174 L 659 172 L 661 172 L 664 170 L 667 170 L 670 168 L 673 168 L 675 166 L 681 166 L 684 164 L 692 164 L 693 163 L 694 164 L 696 163 L 697 165 L 697 164 L 700 162 L 705 162 Z" fill="#F24508" fill-rule="evenodd"/>
</svg>
